<?xml version="1.0" encoding="utf-8"?>
<!-- Generator: Adobe Illustrator 24.0.1, SVG Export Plug-In . SVG Version: 6.00 Build 0)  -->
<svg version="1.1" id="Layer_1" xmlns="http://www.w3.org/2000/svg" xmlns:xlink="http://www.w3.org/1999/xlink" x="0px" y="0px"
	 viewBox="0 0 16 16" style="enable-background:new 0 0 16 16;" xml:space="preserve">
<style type="text/css">
	.st0{fill:#256A5D;}
</style>
<title></title>
<g id="Layer_7">
	<path class="st0" d="M14,0.5H2c-1.1,0-2,0.9-2,2v11c0,1.1,0.9,2,2,2h12c1.1,0,2-0.9,2-2v-11C16,1.4,15.1,0.5,14,0.5z M15,13.5
		c0,0.6-0.4,1-1,1H2c-0.6,0-1-0.4-1-1v-11c0-0.6,0.4-1,1-1h12c0.6,0,1,0.4,1,1V13.5z"/>
	<path class="st0" d="M5,4h6c0.3,0,0.5-0.2,0.5-0.5S11.3,3,11,3H5C4.7,3,4.5,3.2,4.5,3.5S4.7,4,5,4z"/>
	<circle class="st0" cx="3" cy="3.5" r="0.5"/>
	<circle class="st0" cx="13" cy="3.5" r="0.5"/>
	<path class="st0" d="M12,11.1h-0.5V7.6c0-0.3-0.2-0.5-0.5-0.5h-0.5V6.6c0-0.3-0.2-0.5-0.5-0.5S9.5,6.3,9.5,6.6v0.5h-1V6.6
		c0-0.3-0.2-0.5-0.5-0.5c-0.3,0-0.5,0.2-0.5,0.5v0.5h-1V6.6c0-0.3-0.2-0.5-0.5-0.5S5.5,6.3,5.5,6.6v0.5H5c-0.3,0-0.5,0.2-0.5,0.5
		v3.5H4c-0.3,0-0.5,0.2-0.5,0.5s0.2,0.5,0.5,0.5h8c0.3,0,0.5-0.2,0.5-0.5S12.3,11.1,12,11.1z M10.5,8.1v1h-5v-1H10.5z M5.5,11.1v-1
		h5v1H5.5z"/>
</g>
</svg>
