<?xml version="1.0" encoding="utf-8"?>
<!-- Generator: Adobe Illustrator 24.0.1, SVG Export Plug-In . SVG Version: 6.00 Build 0)  -->
<svg version="1.1" id="Layer_1" xmlns="http://www.w3.org/2000/svg" xmlns:xlink="http://www.w3.org/1999/xlink" x="0px" y="0px"
	 viewBox="0 0 48 48" style="enable-background:new 0 0 48 48;" xml:space="preserve">
<style type="text/css">
	.st0{fill:#256A5D;}
</style>
<g id="Expanded">
	<g>
		<g>
			<path class="st0" d="M44,40H4c-2.2,0-4-1.8-4-4V12c0-2.2,1.8-4,4-4h40c2.2,0,4,1.8,4,4v24C48,38.2,46.2,40,44,40z M4,10
				c-1.1,0-2,0.9-2,2v24c0,1.1,0.9,2,2,2h40c1.1,0,2-0.9,2-2V12c0-1.1-0.9-2-2-2H4z"/>
		</g>
		<g>
			<path class="st0" d="M24,29.2L6.5,17.8c-0.5-0.3-0.6-0.9-0.3-1.4c0.3-0.5,0.9-0.6,1.4-0.3L24,26.8l16.5-10.6
				c0.5-0.3,1.1-0.2,1.4,0.3c0.3,0.5,0.2,1.1-0.3,1.4L24,29.2z"/>
		</g>
		<g>
			<path class="st0" d="M6,34c-0.3,0-0.6-0.2-0.8-0.4c-0.3-0.5-0.2-1.1,0.3-1.4l9-6c0.5-0.3,1.1-0.2,1.4,0.3
				c0.3,0.5,0.2,1.1-0.3,1.4l-9,6C6.4,33.9,6.2,34,6,34z"/>
		</g>
		<g>
			<path class="st0" d="M42,34c-0.2,0-0.4-0.1-0.6-0.2l-9-6c-0.5-0.3-0.6-0.9-0.3-1.4c0.3-0.5,0.9-0.6,1.4-0.3l9,6
				c0.5,0.3,0.6,0.9,0.3,1.4C42.6,33.8,42.3,34,42,34z"/>
		</g>
	</g>
</g>
</svg>
