<?xml version="1.0" encoding="utf-8"?>
<!-- Generator: Adobe Illustrator 24.0.1, SVG Export Plug-In . SVG Version: 6.00 Build 0)  -->
<svg version="1.1" id="Layer_1" xmlns="http://www.w3.org/2000/svg" xmlns:xlink="http://www.w3.org/1999/xlink" x="0px" y="0px"
	 viewBox="0 0 48 48" style="enable-background:new 0 0 48 48;" xml:space="preserve">
<style type="text/css">
	.st0{fill:#256A5D;}
</style>
<g id="Expanded">
	<g>
		<g>
			<path class="st0" d="M35,48H13c-2.8,0-5-2.2-5-5V5c0-2.8,2.2-5,5-5h22c2.8,0,5,2.2,5,5v38C40,45.8,37.8,48,35,48z M13,2
				c-1.7,0-3,1.3-3,3v38c0,1.7,1.3,3,3,3h22c1.7,0,3-1.3,3-3V5c0-1.7-1.3-3-3-3H13z"/>
		</g>
		<g>
			<path class="st0" d="M39,10H9c-0.6,0-1-0.4-1-1s0.4-1,1-1h30c0.6,0,1,0.4,1,1S39.6,10,39,10z"/>
		</g>
		<g>
			<path class="st0" d="M39,40H9c-0.6,0-1-0.4-1-1s0.4-1,1-1h30c0.6,0,1,0.4,1,1S39.6,40,39,40z"/>
		</g>
		<g>
			<path class="st0" d="M24,41c-1.1,0-2,0.9-2,2s0.9,2,2,2s2-0.9,2-2S25.1,41,24,41L24,41z"/>
		</g>
		<g>
			<path class="st0" d="M29,6H19c-0.6,0-1-0.4-1-1s0.4-1,1-1h10c0.6,0,1,0.4,1,1S29.6,6,29,6z"/>
		</g>
	</g>
</g>
</svg>
